<svg width="32" height="33" viewBox="0 0 32 33" fill="none" xmlns="http://www.w3.org/2000/svg">
<path d="M12.5373 17.9846L12.5372 17.9845L3.20565 13.2964L3.20382 13.2955C2.56704 12.969 1.82974 13.0095 1.21434 13.3828C0.605915 13.7518 0.25 14.4051 0.25 15.1211V23.9692C0.25 25.4111 1.04242 26.7003 2.32916 27.3457L12.5373 17.9846ZM12.5373 17.9846C13.8254 18.6306 14.6156 19.9198 14.6007 21.3265H14.6007V21.3292V30.1773C14.6007 30.8932 14.2448 31.5466 13.6364 31.9156L13.6363 31.9155L13.6292 31.9201C13.3056 32.1318 12.939 32.2314 12.5697 32.2314C12.2565 32.2314 11.9441 32.1599 11.6609 32.0179L11.6607 32.0178L2.32931 27.3458L12.5373 17.9846ZM29.6721 27.3491L29.6723 27.349C30.9595 26.7034 31.75 25.414 31.75 23.9884V15.1403C31.75 14.4268 31.3816 13.7711 30.785 13.4006L30.7837 13.3998C30.1733 13.0153 29.4378 12.9865 28.7978 13.3147L28.7958 13.3157L25.2865 15.0757L22.8938 16.2757L22.8934 16.2759L19.4643 17.9878L29.6721 27.3491ZM29.6721 27.3491L20.3413 32.0368C20.3412 32.0369 20.341 32.0369 20.3409 32.037C20.0288 32.1925 19.6821 32.2649 19.3342 32.2474C18.986 32.23 18.6482 32.1231 18.3529 31.937L18.3515 31.9362M29.6721 27.3491L18.3515 31.9362M18.3515 31.9362C17.7546 31.5655 17.3849 30.9096 17.3849 30.1965M18.3515 31.9362L17.3849 30.1965M17.3849 30.1965V21.3644M17.3849 30.1965V21.3644M17.3849 21.3644C17.3849 19.9226 18.1772 18.6334 19.4638 17.988L17.3849 21.3644ZM22.4675 12.9998L22.4663 13.0005L17.5693 15.6565L17.5685 15.6569C17.0792 15.9246 16.5463 16.0583 15.9976 16.0583C15.4489 16.0583 14.916 15.9246 14.4268 15.6569L14.4257 15.6563L4.39303 10.2327C4.3929 10.2326 4.39277 10.2325 4.39264 10.2325C3.74146 9.87728 3.32701 9.17881 3.32701 8.40414C3.32701 7.62949 3.74143 6.93103 4.39258 6.57585C4.39273 6.57577 4.39288 6.57568 4.39303 6.5756L7.53452 4.88007L7.53509 4.87977L10.0389 3.52004L10.0395 3.51974L14.4255 1.152L14.4268 1.15133C15.4048 0.616224 16.5904 0.616224 17.5685 1.15133L17.5696 1.15193L27.6022 6.5756C27.6023 6.57567 27.6024 6.57573 27.6025 6.57579C28.2537 6.93096 28.6682 7.62945 28.6682 8.40414C28.6682 9.17888 28.2537 9.87742 27.6024 10.2326C27.6023 10.2326 27.6023 10.2326 27.6022 10.2327L24.8283 11.7358L24.8272 11.7364L22.4675 12.9998Z" fill="white" stroke="#7939CC" stroke-width="0.5"/>
</svg>
