<svg width="178" height="186" viewBox="0 0 178 186" fill="none" xmlns="http://www.w3.org/2000/svg">
<g clip-path="url(#clip0_3005_22158)">
<path d="M89 186C138.153 186 178 160.345 178 128.698C178 97.0506 138.153 71.3955 89 71.3955C39.8467 71.3955 0 97.0506 0 128.698C0 160.345 39.8467 186 89 186Z" fill="#A1757A"/>
<path d="M109.318 180.256L152.633 152.382C153.584 151.772 153.584 150.78 152.633 150.17L61.3176 91.4265C60.3669 90.8162 58.8307 90.8162 57.88 91.4265L14.5646 119.3C13.6139 119.91 13.6139 120.902 14.5646 121.512L105.88 180.256C106.831 180.866 108.367 180.866 109.318 180.256Z" fill="#E0E0E0"/>
<path d="M18.4946 116.295L21.8903 114.112C21.8903 114.112 22.7231 106.008 22.1679 99.7302C21.3922 90.9096 16.2815 80.2961 10.1821 82.7884C4.08652 85.2807 12.977 94.2624 14.9582 101.744C16.9355 109.225 18.4946 116.295 18.4946 116.295Z" fill="#472D30"/>
<path opacity="0.15" d="M18.4946 116.295L21.8903 114.112C21.8903 114.112 22.7231 106.008 22.1679 99.7302C21.3922 90.9096 16.2815 80.2961 10.1821 82.7884C4.08652 85.2807 12.977 94.2624 14.9582 101.744C16.9355 109.225 18.4946 116.295 18.4946 116.295Z" fill="white"/>
<path d="M20.2842 115.374H20.2765C20.1625 115.37 20.075 115.264 20.0788 115.137C20.6758 95.5372 11.9222 85.6823 11.8348 85.5848C11.7549 85.4958 11.7511 85.3517 11.8348 85.2627C11.9146 85.1737 12.0439 85.1694 12.1238 85.2627C12.215 85.3602 21.0941 95.3634 20.4895 115.158C20.4857 115.281 20.3944 115.378 20.2842 115.378V115.374Z" fill="white"/>
<path d="M16.6812 117.859L19.0959 116.303C19.0959 116.303 19.5066 110.742 17.0615 103.986C14.932 98.1023 9.64642 93.2236 6.98839 94.2494C4.33037 95.2751 4.39502 97.3775 5.69171 99.5773C6.98839 101.781 14.8712 107.033 16.6774 117.859H16.6812Z" fill="#472D30"/>
<path d="M17.9509 117.266C17.8368 117.266 17.7455 117.165 17.7455 117.037C17.795 104.648 7.35683 96.2723 7.25035 96.1875C7.15909 96.1155 7.13628 95.9713 7.20092 95.8696C7.26556 95.7679 7.39485 95.7425 7.48612 95.8145C7.59259 95.8993 18.2057 104.415 18.1562 117.042C18.1562 117.169 18.065 117.271 17.9509 117.271V117.266Z" fill="white"/>
<path d="M152.375 140.965C152.359 140.923 152.337 140.885 152.31 140.847C152.295 140.817 152.276 140.8 152.257 140.77C152.241 140.741 152.219 140.715 152.192 140.686C152.169 140.66 152.146 140.635 152.12 140.609C152.048 140.537 151.96 140.469 151.857 140.402L63.3099 83.4174C62.5 82.896 61.1843 82.896 60.3743 83.4174L16.96 111.354C16.8953 111.397 16.8383 111.435 16.7851 111.477C16.7622 111.494 16.7432 111.511 16.7242 111.528C16.6177 111.626 16.5379 111.727 16.477 111.837C16.4618 111.863 16.4466 111.888 16.4352 111.918C16.4124 111.96 16.3972 112.003 16.3896 112.045C16.382 112.079 16.3744 112.113 16.3668 112.143C16.3554 112.198 16.3516 112.253 16.3516 112.308C16.3516 112.346 16.3554 112.384 16.3592 112.422C16.3668 112.465 16.3744 112.507 16.3896 112.55C16.4048 112.592 16.42 112.634 16.4352 112.672C16.5303 112.88 16.7014 113.075 16.9562 113.24L105.504 170.225C105.755 170.386 106.059 170.496 106.378 170.555C106.568 170.593 106.774 170.606 106.971 170.61C107.169 170.61 107.371 170.593 107.561 170.56C107.629 170.551 107.694 170.534 107.751 170.517C107.937 170.471 108.116 170.403 108.28 170.318C108.337 170.288 108.386 170.259 108.435 170.225L151.85 142.288C152.405 141.928 152.58 141.419 152.367 140.965H152.375ZM142.838 138.944L140.058 140.732L103.07 164.52C102.971 164.579 102.876 164.638 102.773 164.685C102.161 164.965 101.481 164.965 100.868 164.685C100.766 164.638 100.663 164.579 100.568 164.52L30.3413 119.327L26.9456 117.144C26.8125 117.059 26.7099 116.966 26.6262 116.864C26.2726 116.432 26.3828 115.885 26.9456 115.521L66.6943 89.9406C67.2 89.6185 67.721 89.3854 68.2381 89.4617C68.3636 89.4786 68.4891 89.5168 68.6146 89.5761C68.6792 89.6058 68.7477 89.6397 68.8085 89.6821L142.838 137.324C143.397 137.685 143.397 138.588 142.838 138.948V138.944Z" fill="white"/>
<path d="M16.7927 111.48C16.0626 112.057 15.496 113.218 15.4922 114.189V116.351C15.4922 117.398 16.1462 118.665 16.96 119.191L105.5 176.171C105.808 176.37 106.184 176.488 106.576 176.535C106.705 176.552 106.835 176.561 106.968 176.565H106.971V170.618C106.77 170.618 106.572 170.597 106.378 170.563C106.059 170.504 105.755 170.389 105.504 170.228L16.9638 113.24C16.2185 112.761 16.1576 112.002 16.7927 111.48Z" fill="#37474F"/>
<path d="M128.926 152.567C127.504 151.656 125.108 151.656 123.686 152.567C123.321 152.805 123.051 153.076 122.903 153.368C122.431 154.275 123.295 154.962 123.686 155.216C125.108 156.128 127.504 156.128 128.926 155.216C129.287 154.979 129.557 154.708 129.71 154.415C130.181 153.508 129.314 152.822 128.926 152.567Z" fill="#472D30"/>
<path d="M42.2224 99.9507C42.6178 99.6964 42.6178 99.281 42.2224 99.0267C41.8269 98.7724 41.1843 98.7724 40.7888 99.0267C40.3933 99.281 40.3933 99.6964 40.7888 99.9507C41.1843 100.205 41.8269 100.205 42.2224 99.9507Z" fill="#263238"/>
<path d="M39.9659 104.323C40.3158 104.099 40.3158 103.73 39.9659 103.505C39.6161 103.281 39.0457 103.281 38.6921 103.505C38.3422 103.73 38.3422 104.099 38.6921 104.323C39.0419 104.548 39.6123 104.548 39.9659 104.323Z" fill="#263238"/>
<path d="M42.1221 102.967L49.2481 98.3806C49.6398 98.1305 49.6588 97.7364 49.2938 97.499C48.9287 97.2616 48.3127 97.2743 47.9248 97.5287L40.7988 102.115C40.4071 102.365 40.3881 102.759 40.7569 102.997C41.122 103.234 41.738 103.221 42.1259 102.967H42.1221Z" fill="#263238"/>
<path d="M152.053 140.547C152.661 141.072 152.596 141.818 151.859 142.289L108.444 170.23C108.041 170.489 107.509 170.62 106.977 170.62V176.567C107.513 176.567 108.037 176.435 108.441 176.173L151.855 148.24C152.665 147.723 153.323 146.451 153.323 145.404L153.33 143.238C153.327 142.28 152.775 141.136 152.053 140.551V140.547Z" fill="#263238"/>
<path d="M37.6606 128.237C38.0789 128.509 38.4212 129.136 38.4212 129.64C38.4212 129.886 38.3413 130.056 38.212 130.132C38.1208 130.187 37.7747 130.42 37.6797 130.475C37.5428 130.56 37.3488 130.543 37.1321 130.408L27.2605 124.054C26.8422 123.783 26.5 123.155 26.5 122.651C26.5 122.418 26.5722 122.252 26.6901 122.168C26.7852 122.1 27.1426 121.871 27.2377 121.812C27.3746 121.727 27.5685 121.744 27.7853 121.879L37.6568 128.233L37.6606 128.237Z" fill="#263238"/>
<path d="M37.1321 128.577L27.2605 122.223C26.8422 121.952 26.5 122.147 26.5 122.651C26.5 123.156 26.8384 123.787 27.2605 124.054L37.1321 130.408C37.5504 130.679 37.8926 130.484 37.8926 129.98C37.8926 129.475 37.5542 128.844 37.1321 128.577Z" fill="white"/>
<path d="M24.4513 119.735C24.8696 120.006 25.2118 120.633 25.2118 121.138C25.2118 121.384 25.132 121.553 25.0027 121.63C24.9114 121.685 24.5654 121.918 24.4703 121.973C24.3334 122.058 24.1395 122.041 23.9227 121.905L19.2683 118.908C18.85 118.637 18.5078 118.01 18.5078 117.505C18.5078 117.272 18.5801 117.107 18.6979 117.022C18.793 116.954 19.1505 116.725 19.2455 116.666C19.3824 116.581 19.5763 116.598 19.7931 116.734L24.4475 119.731L24.4513 119.735Z" fill="#263238"/>
<path d="M23.9227 120.074L19.2683 117.078C18.85 116.806 18.5078 117.001 18.5078 117.506C18.5078 118.01 18.8462 118.642 19.2683 118.909L23.9227 121.905C24.341 122.177 24.6832 121.982 24.6832 121.477C24.6832 120.973 24.3448 120.341 23.9227 120.074Z" fill="white"/>
<path d="M142.836 138.919L140.056 140.708L103.068 164.495C102.97 164.555 102.875 164.614 102.772 164.661C102.16 164.94 101.479 164.94 100.867 164.661C100.764 164.614 100.661 164.555 100.566 164.495L30.3398 119.303L26.9441 117.12C26.811 117.035 26.7084 116.942 26.6247 116.84C26.2711 116.408 26.3813 115.861 26.9441 115.497L66.6928 89.9164C67.1985 89.5942 67.7195 89.3611 68.2366 89.4374C68.3621 89.4544 68.4876 89.4925 68.6131 89.5518C68.6777 89.5815 68.7462 89.6154 68.807 89.6578L142.836 137.3C143.395 137.66 143.395 138.563 142.836 138.924V138.919Z" fill="#472D30"/>
<path opacity="0.8" d="M142.836 138.919L140.056 140.708L103.068 164.495C102.97 164.555 102.875 164.614 102.772 164.661C102.16 164.94 101.479 164.94 100.867 164.661C100.764 164.614 100.661 164.555 100.566 164.495L30.3398 119.303L26.9441 117.12C26.811 117.035 26.7084 116.942 26.6247 116.84C26.2711 116.408 26.3813 115.861 26.9441 115.497L66.6928 89.9164C67.1985 89.5942 67.7195 89.3611 68.2366 89.4374C68.3621 89.4544 68.4876 89.4925 68.6131 89.5518C68.6777 89.5815 68.7462 89.6154 68.807 89.6578L142.836 137.3C143.395 137.66 143.395 138.563 142.836 138.924V138.919Z" fill="white"/>
<path d="M35.3384 113.767C35.3384 113.767 35.3004 113.759 35.2814 113.746L35.0874 113.619L34.6159 113.92C34.5893 113.937 34.5627 113.937 34.5361 113.92L34.4676 113.873C34.4676 113.873 34.441 113.852 34.4334 113.848C34.4296 113.839 34.422 113.831 34.4182 113.818L34.2204 113.046C34.2204 113.046 34.2166 113.021 34.2204 113.012C34.2204 113.004 34.2318 112.996 34.2471 112.987L34.3117 112.945C34.3307 112.932 34.3497 112.928 34.3687 112.928C34.3878 112.928 34.4068 112.936 34.4296 112.949L35.1103 113.386L35.2129 113.318C35.2319 113.305 35.2509 113.301 35.27 113.301C35.289 113.301 35.308 113.309 35.3308 113.322L35.3764 113.352C35.3954 113.364 35.4069 113.377 35.4107 113.39C35.4107 113.402 35.4031 113.411 35.384 113.424L35.2814 113.491L35.4753 113.619C35.4943 113.631 35.5057 113.644 35.5057 113.657C35.5057 113.669 35.4981 113.682 35.4753 113.695L35.3954 113.746C35.3764 113.759 35.3574 113.763 35.3384 113.763V113.767ZM34.9505 113.496L34.4638 113.182L34.6083 113.716L34.9505 113.496Z" fill="white"/>
<path d="M35.7773 113.331C35.5796 113.323 35.3857 113.255 35.1879 113.132C34.994 113.009 34.8913 112.882 34.8761 112.755C34.8647 112.628 34.9408 112.509 35.1081 112.403C35.1765 112.361 35.245 112.322 35.321 112.297C35.3933 112.272 35.4655 112.255 35.534 112.246C35.5492 112.246 35.5606 112.246 35.5682 112.25C35.572 112.25 35.5796 112.259 35.5834 112.267L35.6252 112.352C35.6252 112.352 35.629 112.369 35.6252 112.373C35.6252 112.373 35.6138 112.373 35.5986 112.382C35.4883 112.399 35.3857 112.433 35.2944 112.496C35.1803 112.568 35.1309 112.649 35.1385 112.738C35.1499 112.827 35.226 112.92 35.3781 113.013C35.5302 113.111 35.6709 113.162 35.8078 113.17C35.9446 113.179 36.0663 113.145 36.1728 113.077C36.2108 113.051 36.2489 113.026 36.2755 112.996C36.3059 112.967 36.3249 112.941 36.3363 112.916L36.0207 112.712L35.823 112.84C35.804 112.852 35.7849 112.856 35.7659 112.856C35.7469 112.856 35.7279 112.848 35.7051 112.835L35.6595 112.806C35.6366 112.793 35.6252 112.78 35.6252 112.767C35.6252 112.755 35.6328 112.746 35.6518 112.734L35.9637 112.53C35.9865 112.517 36.0055 112.509 36.0283 112.513C36.0511 112.513 36.0739 112.522 36.0968 112.539L36.5493 112.831C36.5493 112.831 36.5759 112.852 36.5835 112.861C36.5911 112.869 36.5911 112.878 36.5873 112.886C36.5645 112.988 36.4732 113.09 36.3173 113.187C36.15 113.297 35.9675 113.344 35.7697 113.335L35.7773 113.331Z" fill="white"/>
<path d="M39.6813 110.736C39.8334 110.834 39.8334 110.991 39.6813 111.088C39.5292 111.185 39.2858 111.185 39.1375 111.088C38.9854 110.991 38.9854 110.834 39.1375 110.736C39.2896 110.639 39.533 110.639 39.6813 110.736Z" fill="white"/>
<path d="M38.6894 110.45C38.4156 110.628 38.3282 110.878 38.4346 111.103C38.4574 111.15 38.5259 111.175 38.5981 111.171C38.6894 111.162 38.7502 111.103 38.7236 111.048C38.6476 110.891 38.7084 110.713 38.9023 110.586C39.0963 110.463 39.3739 110.425 39.6172 110.471C39.7047 110.488 39.7998 110.45 39.8074 110.391C39.815 110.344 39.7731 110.298 39.7009 110.285C39.3549 110.217 38.9594 110.272 38.6856 110.45H38.6894Z" fill="white"/>
<path d="M38.25 110.169C37.8431 110.432 37.6948 110.801 37.8127 111.14C37.8279 111.191 37.9001 111.225 37.98 111.221C38.0712 111.212 38.1283 111.157 38.1093 111.102C38.0142 110.826 38.1321 110.525 38.4667 110.309C38.8014 110.093 39.2691 110.017 39.6988 110.08C39.7862 110.093 39.8737 110.055 39.8813 110C39.8889 109.949 39.8357 109.902 39.7596 109.894C39.2348 109.818 38.6569 109.911 38.25 110.178V110.169Z" fill="white"/>
<path d="M46.2874 105.832C46.2684 105.832 46.2532 105.824 46.2418 105.816C46.2304 105.807 46.2266 105.794 46.2266 105.782L46.3102 105.332C46.3102 105.332 46.314 105.311 46.3178 105.298C46.3178 105.286 46.3292 105.277 46.3406 105.269L46.4813 105.18C46.4813 105.18 46.5118 105.167 46.5308 105.167C46.5498 105.167 46.565 105.171 46.5802 105.18L47.7476 105.93C47.7476 105.93 47.7666 105.947 47.7666 105.96C47.7666 105.972 47.759 105.981 47.7476 105.989L47.6031 106.083C47.6031 106.083 47.5727 106.095 47.5537 106.095C47.5347 106.095 47.5194 106.095 47.5042 106.083L46.6144 105.51L46.5574 105.803C46.5574 105.803 46.546 105.824 46.5308 105.832C46.5156 105.841 46.5003 105.841 46.4775 105.841L46.2874 105.828V105.832Z" fill="white"/>
<path d="M47.2015 105.246C47.2015 105.246 47.1672 105.237 47.1558 105.229C47.1444 105.22 47.1406 105.207 47.1406 105.195L47.2243 104.745C47.2243 104.745 47.2281 104.724 47.2319 104.711C47.2319 104.699 47.2433 104.69 47.2547 104.682L47.3954 104.593C47.3954 104.593 47.4258 104.58 47.4448 104.58C47.4638 104.58 47.4791 104.584 47.4943 104.593L48.6617 105.343C48.6617 105.343 48.6807 105.36 48.6807 105.373C48.6807 105.385 48.6731 105.394 48.6617 105.402L48.5172 105.496C48.5172 105.496 48.4867 105.508 48.4677 105.508C48.4487 105.508 48.4335 105.508 48.4183 105.496L47.5285 104.923L47.4714 105.216C47.4714 105.216 47.46 105.237 47.4448 105.246C47.4296 105.254 47.4144 105.254 47.3916 105.254L47.2015 105.241V105.246Z" fill="white"/>
<path d="M48.3504 104.444C48.3504 104.444 48.3808 104.432 48.3998 104.432C48.4188 104.432 48.434 104.436 48.4493 104.444L48.628 104.559C48.628 104.559 48.647 104.58 48.647 104.588C48.647 104.601 48.6394 104.61 48.628 104.618L48.4607 104.724C48.4607 104.724 48.4302 104.737 48.4112 104.737C48.3922 104.737 48.377 104.733 48.3618 104.724L48.1831 104.61C48.1831 104.61 48.1641 104.593 48.1641 104.58C48.1641 104.567 48.1717 104.559 48.1831 104.55L48.3504 104.444ZM48.9816 104.851C48.9816 104.851 49.012 104.839 49.0311 104.839C49.0501 104.839 49.0653 104.843 49.0805 104.851L49.2592 104.966C49.2592 104.966 49.2782 104.987 49.2782 104.995C49.2782 105.008 49.2706 105.017 49.2592 105.025L49.0919 105.131C49.0919 105.131 49.0615 105.144 49.0425 105.144C49.0235 105.144 49.0082 105.139 48.993 105.131L48.8143 105.017C48.8143 105.017 48.7953 105 48.7953 104.987C48.7953 104.974 48.8029 104.966 48.8143 104.957L48.9816 104.851Z" fill="white"/>
<path d="M50.2255 104.404C50.2255 104.404 50.1951 104.417 50.1761 104.417C50.1571 104.417 50.1419 104.412 50.1267 104.404L49.9099 104.264L49.3509 104.624C49.3509 104.624 49.3205 104.637 49.3015 104.637C49.2825 104.637 49.2673 104.633 49.2521 104.624L49.1228 104.544C49.1228 104.544 49.0961 104.523 49.0885 104.51C49.0847 104.497 49.0809 104.48 49.0771 104.467L48.9402 103.666C48.9326 103.632 48.9402 103.607 48.9707 103.59L49.1076 103.501C49.1076 103.501 49.138 103.488 49.157 103.488C49.176 103.488 49.1912 103.493 49.2064 103.501L49.9289 103.967L50.0848 103.866C50.0848 103.866 50.1152 103.853 50.1343 103.853C50.1533 103.853 50.1685 103.857 50.1837 103.866L50.313 103.946C50.313 103.946 50.332 103.963 50.332 103.976C50.332 103.988 50.3244 103.997 50.313 104.005L50.1571 104.107L50.3738 104.247C50.3738 104.247 50.3928 104.264 50.3928 104.277C50.3928 104.289 50.3852 104.298 50.3738 104.306L50.2293 104.4L50.2255 104.404ZM49.6856 104.12L49.2977 103.87L49.3737 104.315L49.6817 104.116L49.6856 104.12Z" fill="white"/>
<path d="M49.7299 103.155C49.7299 103.155 49.7109 103.138 49.7109 103.125C49.7109 103.113 49.7185 103.104 49.7299 103.096L50.4068 102.659C50.4068 102.659 50.4372 102.646 50.4562 102.646C50.4753 102.646 50.4905 102.646 50.5057 102.659L50.635 102.74C50.635 102.74 50.654 102.761 50.654 102.769C50.654 102.782 50.6464 102.791 50.635 102.799L50.1292 103.125L50.3422 103.287C50.3612 103.257 50.384 103.231 50.4144 103.21C50.4448 103.189 50.4677 103.172 50.4905 103.159C50.5589 103.117 50.6312 103.083 50.7034 103.058C50.7795 103.032 50.8555 103.015 50.9354 103.011C51.0114 103.011 51.0913 103.011 51.1635 103.032C51.2396 103.049 51.3118 103.079 51.3765 103.125C51.4525 103.176 51.5058 103.227 51.5362 103.278C51.5666 103.329 51.578 103.38 51.5704 103.431C51.5628 103.481 51.54 103.528 51.4982 103.579C51.4563 103.626 51.4031 103.672 51.3385 103.715C51.2548 103.77 51.1749 103.808 51.0951 103.833C51.0152 103.859 50.9392 103.876 50.8669 103.88C50.7947 103.88 50.7262 103.88 50.6654 103.863C50.6007 103.85 50.5475 103.825 50.4981 103.799C50.4829 103.791 50.4753 103.782 50.4753 103.77C50.4753 103.757 50.4829 103.749 50.4981 103.74L50.6464 103.647C50.6464 103.647 50.673 103.634 50.6882 103.634C50.7072 103.634 50.7224 103.634 50.7414 103.643C50.7757 103.655 50.8099 103.664 50.8441 103.664C50.8783 103.664 50.9088 103.664 50.9392 103.655C50.9696 103.647 51 103.638 51.0304 103.626C51.0609 103.613 51.0875 103.596 51.1141 103.579C51.1825 103.537 51.2206 103.486 51.2244 103.435C51.2282 103.384 51.1978 103.337 51.1331 103.295C51.0799 103.261 51.0114 103.244 50.9354 103.248C50.8555 103.248 50.7833 103.274 50.7148 103.32C50.6806 103.342 50.654 103.363 50.6388 103.38C50.6236 103.397 50.6122 103.414 50.6045 103.426C50.5969 103.439 50.5931 103.452 50.5855 103.46C50.5817 103.469 50.5703 103.481 50.5513 103.494L50.384 103.6C50.384 103.6 50.3536 103.613 50.3346 103.613C50.3156 103.613 50.3003 103.609 50.2851 103.6L49.7261 103.172L49.7299 103.155Z" fill="white"/>
<path d="M30.2983 117.202L29.9219 116.961L30.4238 116.639L30.8003 116.88L30.2983 117.202Z" fill="white"/>
<path d="M31.0576 116.717L30.3047 116.234L30.8066 115.912L31.5595 116.395L31.0576 116.717Z" fill="white"/>
<path d="M31.8091 116.234L30.6797 115.505L31.1816 115.183L32.311 115.912L31.8091 116.234Z" fill="white"/>
<path d="M32.5527 115.748L31.0469 114.781L31.5488 114.459L33.0547 115.425L32.5527 115.748Z" fill="white"/>
<path d="M66.5502 92.2947C66.4286 92.282 66.3221 92.3032 66.2536 92.3455L64.379 93.5493C64.2573 93.6256 64.2877 93.7697 64.4512 93.8757L65.1357 94.3165C65.2269 94.3758 65.3448 94.414 65.4665 94.4225C65.5197 94.4267 65.5692 94.4267 65.6148 94.4225C65.6757 94.414 65.7251 94.397 65.7631 94.3758L67.6378 93.1721C67.7595 93.0958 67.7291 92.9517 67.5655 92.8457L66.8811 92.4049C66.7898 92.3455 66.6757 92.3074 66.5502 92.2989V92.2947ZM65.4475 94.3419C65.4019 94.3419 65.3524 94.3207 65.3068 94.2911L64.6223 93.8503C64.5044 93.774 64.4778 93.6595 64.5691 93.6044L66.4438 92.4006C66.4666 92.3879 66.4932 92.3752 66.5198 92.3752C66.535 92.3752 66.5503 92.3752 66.5655 92.3752C66.6111 92.3752 66.6605 92.3964 66.7062 92.4261L67.3906 92.8669C67.5085 92.9432 67.5351 93.0576 67.4439 93.1127L65.5692 94.3165C65.535 94.3377 65.4893 94.3504 65.4437 94.3462L65.4475 94.3419Z" fill="white"/>
<path d="M65.0478 93.4531L65.8578 93.9745L65.5611 94.1652C65.5345 94.1822 65.4813 94.1864 65.4623 94.1737L64.8615 93.788C64.774 93.7329 64.755 93.6481 64.8196 93.6057L65.0478 93.4574V93.4531Z" fill="white"/>
<path d="M65.1875 93.3685L65.5373 93.1396L66.3473 93.661L65.9937 93.8857L65.1875 93.3685Z" fill="white"/>
<path d="M65.6797 93.0531L66.0295 92.8242L66.8433 93.3456L66.4896 93.5745L65.6797 93.0531Z" fill="white"/>
<path d="M66.5631 92.5501L67.1449 92.9231C67.2514 92.9909 67.2286 93.0927 67.0841 93.1859L66.9662 93.2622L66.1562 92.7409L66.4376 92.5628C66.4719 92.5416 66.5403 92.5374 66.5631 92.5501Z" fill="white"/>
<path d="M66.9544 92.3617C67.0039 92.3278 67.1598 92.3744 67.3005 92.4634L67.426 92.5439C67.5667 92.633 67.6389 92.7347 67.5895 92.7728L67.502 92.8364L66.8594 92.421C66.8594 92.421 66.9012 92.3956 66.9506 92.3617H66.9544Z" fill="white"/>
<path d="M61.7812 95.8125L63.2376 94.4053L64.002 95.6218L62.9981 95.3166L61.7812 95.8125Z" fill="white"/>
<path opacity="0.1" d="M78.4896 101.214L45.2891 122.581L78.4896 144.007L111.69 122.581L78.4896 101.214Z" fill="white"/>
<path d="M91.4844 143.816V144.087C91.4844 144.523 91.7582 145.053 92.0966 145.269L105.235 153.726C105.573 153.942 106.121 153.942 106.459 153.726L128.218 139.725C128.556 139.509 128.83 138.979 128.83 138.543V138.271C128.83 137.835 128.556 137.305 128.218 137.089L115.08 128.633C114.741 128.417 114.194 128.417 113.855 128.633L92.0966 142.633C91.7582 142.849 91.4844 143.379 91.4844 143.816Z" fill="#472D30"/>
<path d="M91.4844 143.816V144.087C91.4844 144.523 91.7582 145.053 92.0966 145.269L105.235 153.726C105.573 153.942 106.121 153.942 106.459 153.726L128.218 139.725C128.556 139.509 128.83 138.979 128.83 138.543V138.271C128.83 137.835 128.556 137.305 128.218 137.089L115.08 128.633C114.741 128.417 114.194 128.417 113.855 128.633L92.0966 142.633C91.7582 142.849 91.4844 143.379 91.4844 143.816Z" fill="#472D30"/>
<path opacity="0.3" d="M128.218 137.089L115.08 128.633C114.742 128.417 114.194 128.417 113.856 128.633L105.852 133.787V153.891C106.072 153.891 106.296 153.836 106.464 153.726L128.222 139.725C128.561 139.509 128.835 138.979 128.835 138.543V138.271C128.835 137.835 128.561 137.305 128.222 137.089H128.218Z" fill="white"/>
<path opacity="0.15" d="M128.218 137.089L115.08 128.633C114.742 128.417 114.194 128.417 113.856 128.633L105.852 133.787V153.891C106.072 153.891 106.296 153.836 106.464 153.726L128.222 139.725C128.561 139.509 128.835 138.979 128.835 138.543V138.271C128.835 137.835 128.561 137.305 128.222 137.089H128.218Z" fill="white"/>
<path opacity="0.3" d="M105.847 133.785L92.0966 142.635C91.7582 142.852 91.4844 143.381 91.4844 143.818V144.089C91.4844 144.526 91.7582 145.056 92.0966 145.272L105.235 153.728C105.402 153.838 105.626 153.893 105.847 153.893V133.789V133.785Z" fill="white"/>
<path opacity="0.2" d="M105.847 133.785L92.0966 142.635C91.7582 142.852 91.4844 143.381 91.4844 143.818V144.089C91.4844 144.526 91.7582 145.056 92.0966 145.272L105.235 153.728C105.402 153.838 105.626 153.893 105.847 153.893V133.789V133.785Z" fill="white"/>
<path d="M103.141 150.527L92.1054 143.427C91.767 143.211 91.767 142.855 92.1054 142.639L113.864 128.639C114.202 128.423 114.75 128.423 115.088 128.639L128.226 137.095C128.565 137.311 128.565 137.667 128.226 137.883L124.618 140.206L123.355 141.02L106.472 151.888C106.133 152.104 105.586 152.104 105.247 151.888L104.179 151.197L103.144 150.531L103.141 150.527Z" fill="#472D30"/>
<path opacity="0.3" d="M103.141 150.527L92.1054 143.427C91.767 143.211 91.767 142.855 92.1054 142.639L113.864 128.639C114.202 128.423 114.75 128.423 115.088 128.639L128.226 137.095C128.565 137.311 128.565 137.667 128.226 137.883L124.618 140.206L123.355 141.02L106.472 151.888C106.133 152.104 105.586 152.104 105.247 151.888L104.179 151.197L103.144 150.531L103.141 150.527Z" fill="white"/>
<path opacity="0.15" d="M113.156 138.728L128.225 137.088L113.289 138.029L115.084 128.631C114.901 128.513 114.658 128.466 114.418 128.475L111.6 141.178L91.8534 142.992C91.8382 143.145 91.918 143.301 92.1006 143.42L108.049 142.39L105.855 152.041L108.661 142.352L111.384 142.174C111.726 142.153 112.038 141.996 112.281 141.754C112.509 141.525 112.673 141.224 112.741 140.873L113.152 138.728H113.156Z" fill="white"/>
<path opacity="0.3" d="M96.5592 142.562L111.595 141.18L112.135 138.776L112.431 137.441L114.416 128.477C114.211 128.485 114.013 128.532 113.857 128.633L102.978 135.636L92.0987 142.638C91.9428 142.74 91.863 142.867 91.8516 142.998L94.867 142.723L96.563 142.566L96.5592 142.562Z" fill="white"/>
<path d="M111.983 126.629C113.355 125.743 115.584 125.743 116.96 126.629C118.337 127.515 118.333 128.948 116.96 129.834C115.588 130.72 113.359 130.72 111.983 129.834C110.61 128.948 110.61 127.515 111.983 126.629Z" fill="#F28F8F"/>
<path d="M112.725 128.758C112.68 128.758 112.646 128.741 112.623 128.72C112.6 128.699 112.588 128.669 112.596 128.643L112.801 127.635C112.809 127.609 112.813 127.58 112.824 127.546C112.832 127.512 112.858 127.482 112.9 127.452L113.402 127.13C113.433 127.113 113.471 127.101 113.513 127.101C113.554 127.101 113.592 127.109 113.623 127.13L116.288 128.847C116.319 128.864 116.334 128.889 116.334 128.919C116.334 128.949 116.319 128.97 116.288 128.991L115.748 129.339C115.718 129.36 115.68 129.368 115.638 129.368C115.596 129.368 115.558 129.36 115.528 129.339L113.725 128.177L113.608 128.732C113.604 128.762 113.581 128.783 113.547 128.8C113.513 128.817 113.474 128.826 113.429 128.821L112.729 128.762L112.725 128.758Z" fill="#FAFAFA"/>
<path d="M45.9453 109.362L78.4842 88.4189L111.023 109.362L78.4842 130.305L45.9453 109.362Z" fill="white"/>
<path d="M78.4896 88.4174V52.6094L45.2891 73.9721L73.0671 91.91L78.4896 88.4174Z" fill="#37474F"/>
<path d="M78.4922 52.6094V88.4174L83.9147 91.91L111.693 73.9721L78.4922 52.6094Z" fill="#263238"/>
<path d="M45.2891 73.9736V108.938L78.4896 130.305V95.4L45.2891 73.9736Z" fill="#472D30"/>
<g opacity="0.38">
<path d="M45.2891 73.9736V108.938L78.4896 130.305V95.4L45.2891 73.9736Z" fill="white"/>
</g>
<path d="M78.4922 95.4V130.305L111.693 108.938V73.9736L78.4922 95.4Z" fill="#472D30"/>
<g opacity="0.23">
<path d="M78.4922 95.4V130.305L111.693 108.938V73.9736L78.4922 95.4Z" fill="white"/>
</g>
<path opacity="0.7" d="M78.4922 95.4004L79.1462 128.97L103.259 114.364L78.4922 130.306V95.4004Z" fill="white"/>
<path d="M87.4131 121.133C87.3142 121.133 87.2344 121.044 87.2344 120.934V116.509C87.2344 116.399 87.3142 116.31 87.4131 116.31C87.512 116.31 87.5918 116.399 87.5918 116.509V120.934C87.5918 121.044 87.512 121.133 87.4131 121.133Z" fill="#F0F0F0"/>
<path d="M86.8853 118.042C86.8625 118.042 86.8397 118.038 86.8168 118.026C86.7256 117.983 86.6876 117.864 86.7256 117.767L87.3568 116.144L88.0603 117.051C88.1249 117.131 88.1173 117.258 88.0413 117.33C87.969 117.398 87.8549 117.394 87.7903 117.309L87.4557 116.877L87.0488 117.924C87.0184 117.996 86.9537 118.042 86.8853 118.042Z" fill="#F0F0F0"/>
<path d="M89.0537 120.092C88.9549 120.092 88.875 120.003 88.875 119.893V115.468C88.875 115.358 88.9549 115.269 89.0537 115.269C89.1526 115.269 89.2324 115.358 89.2324 115.468V119.893C89.2324 120.003 89.1526 120.092 89.0537 120.092Z" fill="#F0F0F0"/>
<path d="M88.5259 116.999C88.5031 116.999 88.4803 116.994 88.4575 116.982C88.3662 116.939 88.3282 116.821 88.3662 116.723L88.9974 115.1L89.7009 116.002C89.7656 116.083 89.758 116.21 89.6819 116.282C89.6058 116.354 89.4956 116.346 89.4309 116.261L89.0963 115.829L88.6894 116.876C88.659 116.948 88.5944 116.994 88.5259 116.994V116.999Z" fill="#F0F0F0"/>
<path d="M82.6803 124.14C82.6119 124.14 82.5434 124.123 82.4864 124.085C82.3533 124 82.2734 123.827 82.2734 123.61V123.068C82.2734 122.958 82.3533 122.869 82.4522 122.869C82.551 122.869 82.6309 122.958 82.6309 123.068V123.61C82.6309 123.691 82.6499 123.733 82.6651 123.742C82.6765 123.755 82.7183 123.746 82.7792 123.708C82.9351 123.606 83.11 123.216 83.11 122.814V120.546C83.11 120.436 83.1899 120.347 83.2887 120.347C83.3876 120.347 83.4675 120.436 83.4675 120.546V122.814C83.4675 123.331 83.2507 123.861 82.9617 124.047C82.8666 124.106 82.7716 124.14 82.6841 124.14H82.6803Z" fill="#F0F0F0"/>
<path d="M80.8125 122.312V121.968C80.8125 120.358 81.8278 118.395 83.0789 117.594C83.7177 117.183 84.3299 117.124 84.7976 117.425C85.2654 117.725 85.5239 118.344 85.5239 119.167V119.281L80.8125 122.312ZM84.1398 117.628C83.8736 117.628 83.5732 117.73 83.2576 117.933C82.1967 118.616 81.3182 120.209 81.1852 121.612L85.1665 119.048C85.1475 118.429 84.9535 117.976 84.6189 117.759C84.4782 117.67 84.3147 117.624 84.1398 117.624V117.628Z" fill="#F0F0F0"/>
<path d="M78.4896 52.6094L45.2891 73.9721L78.4896 95.3984L111.69 73.9721L78.4896 52.6094Z" fill="#472D30"/>
<path opacity="0.1" d="M78.4896 52.6094L45.2891 73.9721L78.4896 95.3984L111.69 73.9721L78.4896 52.6094Z" fill="white"/>
<path opacity="0.7" d="M45.2891 73.9736L78.4896 94.0775L111.69 73.9736L78.4896 95.4L45.2891 73.9736Z" fill="white"/>
<path d="M59.0703 65.1049L92.2975 86.4889L97.4082 83.1912L64.1848 61.8115L59.0703 65.1049Z" fill="white"/>
<path d="M97.4036 83.1904V90.4343L96.7875 90.0401L96.1449 91.2778L95.5023 90.8581L94.8596 92.1043L94.217 91.6847L93.5743 92.9223L92.9317 92.5154L92.2891 93.7489V86.4881L97.4036 83.1904Z" fill="#472D30"/>
<path d="M97.4036 83.1904V90.4343L96.7875 90.0401L96.1449 91.2778L95.5023 90.8581L94.8596 92.1043L94.217 91.6847L93.5743 92.9223L92.9317 92.5154L92.2891 93.7489V86.4881L97.4036 83.1904Z" fill="#37474F"/>
<path d="M54.9735 33.0039L50.9047 35.6234L46.8359 38.2429L49.9845 47.4577C50.0567 47.6696 50.1784 47.8222 50.3229 47.9197C50.7602 48.2164 55.0153 50.9334 55.1598 51.0308C55.5971 51.3275 56.2474 51.1283 56.4033 50.4756L59.8104 36.1193L54.9735 33.0081V33.0039Z" fill="#472D30"/>
<g opacity="0.2">
<path d="M54.9735 33.0039L50.9047 35.6234L46.8359 38.2429L49.9845 47.4577C50.0567 47.6696 50.1784 47.8222 50.3229 47.9197C50.7602 48.2164 55.0153 50.9334 55.1598 51.0308C55.5971 51.3275 56.2474 51.1283 56.4033 50.4756L59.8104 36.1193L54.9735 33.0081V33.0039Z" fill="white"/>
</g>
<path d="M51.6797 41.3503L55.7485 38.7308L59.8173 36.1113L56.4101 50.4676C56.2048 51.3408 55.1172 51.4043 54.8282 50.5608L51.6797 41.346V41.3503Z" fill="#472D30"/>
<path d="M79.9221 7.20676C79.9221 5.39686 79.3593 4.12103 78.4467 3.5149C77.5759 2.93845 74.4349 0.937808 73.5679 0.382547C72.6363 -0.215102 71.3548 -0.12609 69.9326 0.785217L28.3359 27.5522V50.3773L33.1729 53.4842L74.7696 26.7172C77.6177 24.8861 79.9259 20.4271 79.9259 16.7649V7.20676H79.9221Z" fill="#472D30"/>
<g opacity="0.5">
<path d="M79.9221 7.20676C79.9221 5.39686 79.3593 4.12103 78.4467 3.5149C77.5759 2.93845 74.4349 0.937808 73.5679 0.382547C72.6363 -0.215102 71.3548 -0.12609 69.9326 0.785217L28.3359 27.5522V50.3773L33.1729 53.4842L74.7696 26.7172C77.6177 24.8861 79.9259 20.4271 79.9259 16.7649V7.20676H79.9221Z" fill="white"/>
</g>
<path d="M74.7608 26.7139C77.6089 24.8829 79.9171 20.4238 79.9171 16.7616V7.20773C79.9171 3.5413 77.6089 2.05778 74.7608 3.88887L33.1641 30.6559V53.481L74.7608 26.7139Z" fill="#472D30"/>
<path d="M35.6843 23.9806L35.6615 23.9679L29.9804 20.31C29.9804 20.31 29.9804 20.31 29.9766 20.31L29.9424 20.293C27.2958 18.7968 23.767 19.1994 19.9606 21.9334C12.3097 27.4266 6.46512 40.0875 6.90623 50.2178C7.12678 55.266 8.84936 58.7841 11.4884 60.31L11.5112 60.3227L17.1999 63.9722L17.2265 63.9891C19.8731 65.4896 23.4133 65.0488 27.2274 62.3149C34.8782 56.8216 40.7228 44.1608 40.2779 34.0304C40.0573 28.9822 38.3158 25.515 35.6805 23.9891L35.6843 23.9806Z" fill="#37474F"/>
<path d="M17.0099 63.8488L11.5151 60.3138H11.5113L11.4847 60.2968C8.84952 58.7667 7.12313 55.2486 6.90639 50.2089C6.70865 45.6905 7.76578 40.6719 9.66708 36.0137L15.3406 39.7098C13.4317 44.368 12.3821 49.3866 12.5799 53.905C12.7966 58.8472 14.466 62.2678 17.0099 63.8488Z" fill="#263238"/>
<path d="M27.2377 62.3112C34.8886 56.8179 40.7332 44.1571 40.2883 34.0268C39.8472 23.8964 33.2877 20.1368 25.6369 25.6258C17.986 31.1191 12.1414 43.7799 12.5863 53.9102C13.0274 64.0406 19.5869 67.8003 27.2377 62.3112Z" fill="white"/>
<path d="M25.537 43.0299C25.1453 43.0299 24.7726 42.9239 24.438 42.7078C23.5406 42.1313 23.0234 40.8343 23.0234 39.1516C23.0234 36.1209 24.6966 32.5732 26.75 31.2507C27.7235 30.6234 28.6817 30.5514 29.446 31.043C30.3435 31.6195 30.8606 32.9165 30.8606 34.5993C30.8606 37.6341 29.1875 41.1776 27.1341 42.5001C26.5865 42.8519 26.0427 43.0299 25.537 43.0299ZM28.3471 31.5729C27.9744 31.5729 27.5599 31.7127 27.1341 31.9883C25.2898 33.1751 23.7878 36.388 23.7878 39.1516C23.7878 40.5206 24.1642 41.5506 24.8183 41.9745C25.3392 42.3093 26.0237 42.233 26.7538 41.7668C28.5981 40.58 30.1001 37.3628 30.1001 34.6035C30.1001 33.2344 29.7236 32.2044 29.0696 31.7848C28.8566 31.6449 28.6133 31.5771 28.3509 31.5771L28.3471 31.5729Z" fill="#472D30"/>
<path d="M20.0072 42.0045C19.8742 42.0045 19.7487 41.9282 19.6764 41.7926C19.5699 41.5892 19.6346 41.3306 19.8171 41.2119L23.2243 39.0163C23.4068 38.8976 23.6387 38.9697 23.7452 39.1731C23.8517 39.3766 23.787 39.6351 23.6045 39.7538L20.1974 41.9494C20.1365 41.9876 20.0719 42.0045 20.0072 42.0045Z" fill="#472D30"/>
<path d="M22.0892 51.9637C22.0359 51.9637 21.9865 51.951 21.9371 51.9298C21.8268 51.8747 21.7469 51.7687 21.7165 51.6373L19.241 39.8454C19.2296 39.7861 19.184 39.5996 19.0813 39.5784L18.1231 39.3792C17.9177 39.3368 17.7808 39.1121 17.8188 38.8832C17.8569 38.6544 18.0546 38.506 18.2637 38.5442L19.222 38.7434C19.5985 38.8239 19.8761 39.1545 19.9825 39.6504L22.3401 50.8871L31.0063 45.309C31.2573 45.148 31.5044 44.6987 31.5767 44.2621L33.2384 34.208C33.2955 33.852 33.2232 33.657 33.1814 33.6231C33.1738 33.6189 33.1281 33.6189 33.0521 33.6697L30.6717 35.2041C30.4891 35.3228 30.2572 35.2507 30.1507 35.0473C30.0442 34.8438 30.1089 34.5853 30.2914 34.4666L32.6718 32.9322C33.0065 32.716 33.3525 32.716 33.6225 32.928C33.9571 33.1907 34.094 33.7248 33.9875 34.3606L32.3258 44.4147C32.2117 45.1013 31.8352 45.7541 31.3903 46.0423L22.2793 51.9043C22.2223 51.9425 22.1538 51.9594 22.0892 51.9594V51.9637Z" fill="#472D30"/>
<path d="M21.6156 55.5045C21.4445 55.5045 21.281 55.4579 21.1365 55.3604C20.7676 55.123 20.5547 54.6144 20.5547 53.9701C20.5547 52.8893 21.1365 51.6643 21.878 51.1853L31.0119 45.3063C31.1944 45.1877 31.4263 45.2597 31.5328 45.4632C31.6393 45.6666 31.5746 45.9252 31.3921 46.0439L22.2583 51.9229C21.7449 52.2535 21.3152 53.1902 21.3152 53.9701C21.3152 54.3558 21.4179 54.5635 21.5167 54.6271C21.627 54.6992 21.7905 54.6144 21.878 54.5593L31.6545 48.2692C31.837 48.1505 32.069 48.2225 32.1755 48.426C32.2819 48.6294 32.2173 48.888 32.0348 49.0067L22.2583 55.2968C22.0415 55.4367 21.8248 55.5087 21.6156 55.5087V55.5045Z" fill="#472D30"/>
<path d="M22.8967 59.6674C22.7255 59.6674 22.562 59.6208 22.4137 59.5233C22.0411 59.2817 21.8281 58.7731 21.8281 58.1245C21.8281 57.0352 22.4137 55.8018 23.1628 55.3228C23.5621 55.0685 23.9614 55.0431 24.2922 55.255C24.6649 55.4966 24.8778 56.0052 24.8778 56.6537C24.8778 57.7431 24.2922 58.9765 23.5431 59.4555C23.3264 59.5954 23.1058 59.6674 22.8967 59.6674ZM23.8055 55.9628C23.7104 55.9628 23.6077 56.0179 23.5431 56.0603C23.0259 56.3909 22.5886 57.3404 22.5886 58.1288C22.5886 58.523 22.6951 58.7307 22.794 58.7942C22.9081 58.8663 23.0716 58.7858 23.1628 58.7264C23.68 58.3958 24.1173 57.4464 24.1173 56.658C24.1173 56.268 24.0108 56.0561 23.912 55.9925C23.8815 55.9713 23.8435 55.9628 23.8055 55.9628Z" fill="#472D30"/>
<path d="M29.3185 55.5336C29.1474 55.5336 28.9839 55.487 28.8356 55.3895C28.4629 55.1479 28.25 54.6393 28.25 53.9908C28.25 52.9014 28.8356 51.668 29.5847 51.189C29.984 50.9347 30.3833 50.9093 30.7141 51.1212C31.0867 51.3628 31.2997 51.8714 31.2997 52.5199C31.2997 53.6093 30.7141 54.8427 29.965 55.3217C29.7482 55.4616 29.5277 55.5336 29.3185 55.5336ZM30.2274 51.829C30.1323 51.829 30.0296 51.8842 29.965 51.9265C29.4478 52.2572 29.0105 53.2066 29.0105 53.995C29.0105 54.3892 29.117 54.5969 29.2159 54.6605C29.3299 54.7325 29.4973 54.652 29.5847 54.5926C30.1019 54.262 30.5392 53.3126 30.5392 52.5242C30.5392 52.1342 30.4327 51.9223 30.3338 51.8587C30.3034 51.8375 30.2654 51.829 30.2274 51.829Z" fill="#472D30"/>
<path d="M25.6088 56.3601C25.4757 56.3601 25.3502 56.2838 25.278 56.1481C25.1715 55.9447 25.2362 55.6861 25.4187 55.5674L27.3238 54.3425C27.5063 54.2238 27.7383 54.2959 27.8447 54.4993C27.9512 54.7028 27.8866 54.9613 27.704 55.08L25.7989 56.305C25.7381 56.3431 25.6735 56.3601 25.6088 56.3601Z" fill="#472D30"/>
<path d="M26.3779 39.6902C26.2828 39.6902 26.1915 39.652 26.1193 39.58L24.9823 38.4186C24.8264 38.2618 24.8188 37.9905 24.9595 37.8209C25.1002 37.6472 25.3435 37.6387 25.4957 37.7955L26.2486 38.5627L28.2868 33.5823C28.3742 33.3704 28.5986 33.2771 28.7925 33.3746C28.9826 33.4721 29.0663 33.7222 28.9788 33.9383L26.7201 39.4486C26.6707 39.5715 26.568 39.6605 26.4501 39.6859C26.4235 39.6902 26.4007 39.6944 26.3741 39.6944L26.3779 39.6902Z" fill="#472D30"/>
<path d="M49.8786 25.5601C49.89 25.2337 49.928 24.9116 50.0003 24.581C50.0725 24.2546 50.1714 23.9452 50.3045 23.6527C50.4338 23.3603 50.5935 23.0932 50.7798 22.8516C50.9661 22.61 51.1829 22.4066 51.4301 22.2497C51.6696 22.0929 51.8864 22.0166 52.0765 22.0166C52.2666 22.0166 52.4263 22.0802 52.5556 22.2031C52.6849 22.326 52.7876 22.504 52.8598 22.7414C52.9321 22.9788 52.9701 23.25 52.9815 23.5637C52.9891 23.8011 52.9929 24.0554 52.9929 24.3224C52.9929 24.5895 52.9929 24.8438 52.9815 25.0811C52.9701 25.4075 52.9321 25.7297 52.8598 26.0603C52.7876 26.3866 52.6887 26.7003 52.5556 26.9928C52.4263 27.2895 52.2666 27.5565 52.0765 27.7939C51.8864 28.0355 51.6734 28.2347 51.4301 28.3873C51.1829 28.5441 50.9699 28.6246 50.7798 28.6246C50.5935 28.6246 50.4338 28.5653 50.3045 28.4381C50.1752 28.311 50.0725 28.133 50.0003 27.8956C49.928 27.6582 49.89 27.387 49.8786 27.0733C49.871 26.8444 49.8672 26.5986 49.8672 26.3315C49.8672 26.0645 49.8672 25.8059 49.8786 25.5559V25.5601ZM52.0613 25.6322C52.0613 25.5262 52.0689 25.4118 52.0727 25.2846C52.0727 25.1574 52.0765 25.0303 52.0765 24.8989C52.0765 24.7675 52.0765 24.6446 52.0727 24.5216C52.0727 24.403 52.0651 24.2928 52.0613 24.1995C52.0537 24.0639 52.0385 23.9409 52.0081 23.8392C51.9814 23.7375 51.9396 23.6612 51.8902 23.6061C51.8369 23.551 51.7761 23.5213 51.7 23.5213C51.624 23.5213 51.5327 23.551 51.4301 23.6188C51.3274 23.6866 51.2361 23.7672 51.1601 23.8689C51.084 23.9706 51.0194 24.0808 50.9699 24.1995C50.9205 24.3224 50.8787 24.4496 50.8521 24.5852C50.8254 24.7251 50.8064 24.865 50.7988 25.0133C50.7912 25.115 50.7874 25.2253 50.7874 25.3482C50.7874 25.4711 50.7874 25.5983 50.7874 25.7297C50.7874 25.861 50.7874 25.9882 50.7874 26.1111C50.7874 26.234 50.7912 26.3485 50.7988 26.446C50.8102 26.7215 50.8673 26.9207 50.9699 27.0436C51.0726 27.1665 51.2247 27.1623 51.4301 27.0309C51.6354 26.8995 51.7875 26.7088 51.8864 26.4545C51.9852 26.2001 52.0423 25.9289 52.0613 25.6364V25.6322Z" fill="#FAFAFA"/>
<path d="M55.0417 20.0127C55.2585 19.8729 55.4562 19.7838 55.6273 19.7542C55.7984 19.7245 55.9467 19.7499 56.0684 19.8305C56.1901 19.911 56.2814 20.0551 56.346 20.2628C56.4106 20.4705 56.4411 20.7375 56.4411 21.0639C56.4411 21.492 56.3878 21.8777 56.2852 22.2253C56.1825 22.5729 56.038 22.8823 55.8479 23.1493L56.4639 24.7812C56.4753 24.8109 56.4791 24.8363 56.4791 24.866C56.4791 24.9168 56.4677 24.9677 56.4487 25.0186C56.4259 25.0694 56.403 25.1033 56.3726 25.1245L55.6958 25.5611C55.6311 25.6035 55.5817 25.6077 55.5551 25.5738C55.5284 25.5399 55.5056 25.506 55.4866 25.4636L54.9352 23.9928L54.4789 24.2895V26.1121C54.4789 26.1757 54.4675 26.2393 54.4409 26.2986C54.4143 26.3622 54.3839 26.4046 54.3458 26.4258L53.6956 26.8454C53.6576 26.8708 53.6271 26.8666 53.6005 26.8369C53.5739 26.8073 53.5625 26.7606 53.5625 26.7013V21.1953C53.5625 21.1317 53.5739 21.0681 53.6005 21.0088C53.6271 20.9452 53.6576 20.9028 53.6956 20.8774L55.0417 20.0127ZM54.4789 22.9586L55.0417 22.5983C55.1824 22.5093 55.2965 22.3906 55.3877 22.2423C55.479 22.0939 55.5246 21.8989 55.5246 21.6616C55.5246 21.4242 55.479 21.2886 55.3877 21.2546C55.2965 21.2207 55.1824 21.2546 55.0417 21.3394L54.4789 21.6997V22.9628V22.9586Z" fill="#FAFAFA"/>
<path d="M58.4606 17.8121C58.6888 17.6638 58.8979 17.5875 59.088 17.5832C59.2782 17.579 59.4417 17.6383 59.5786 17.757C59.7155 17.8799 59.8219 18.0622 59.9018 18.3038C59.9779 18.5454 60.0235 18.8379 60.0349 19.1769C60.0349 19.2956 60.0387 19.4016 60.0387 19.5033V20.0713C60.0387 20.1688 60.0387 20.2748 60.0349 20.3892C60.0235 20.7495 59.9817 21.0971 59.9056 21.4361C59.8296 21.7752 59.7231 22.0931 59.59 22.3898C59.4569 22.6865 59.2972 22.9536 59.1109 23.1867C58.9245 23.4198 58.7192 23.6148 58.491 23.7632L57.1487 24.6278C57.1107 24.6533 57.0803 24.649 57.0537 24.6194C57.027 24.5897 57.0156 24.5473 57.0156 24.4837V18.9777C57.0156 18.9142 57.027 18.8548 57.0537 18.7912C57.0803 18.7277 57.1107 18.6853 57.1487 18.6641L58.4644 17.8163L58.4606 17.8121ZM59.1109 19.7364C59.0918 19.0964 58.8637 18.9142 58.434 19.1897L57.9282 19.516V22.7544L58.4606 22.411C58.8789 22.144 59.0956 21.6777 59.1109 21.0123C59.1109 20.8894 59.1147 20.7792 59.1147 20.6732V20.0628C59.1147 19.9611 59.1147 19.8509 59.1109 19.7322V19.7364Z" fill="#FAFAFA"/>
<path d="M63.0923 19.4372C63.1303 19.4118 63.1607 19.416 63.1873 19.4457C63.214 19.4754 63.2254 19.522 63.2254 19.5813V20.4841C63.2254 20.5477 63.214 20.6113 63.1873 20.6706C63.1607 20.7342 63.1303 20.7766 63.0923 20.802L60.7385 22.3152C60.7004 22.3407 60.67 22.3364 60.6434 22.3068C60.6168 22.2771 60.6016 22.2347 60.6016 22.1711V16.6651C60.6016 16.6016 60.613 16.538 60.6434 16.4786C60.67 16.4151 60.7004 16.3727 60.7385 16.3515L63.0542 14.8595C63.0885 14.834 63.1227 14.8383 63.1493 14.8679C63.1759 14.8976 63.1873 14.94 63.1873 15.0036V15.9064C63.1873 15.97 63.1759 16.0336 63.1493 16.0929C63.1227 16.1565 63.0923 16.1989 63.0542 16.2201L61.5256 17.2034V18.1232L62.9478 17.2077C62.9858 17.1865 63.0162 17.1865 63.0428 17.2162C63.0695 17.2458 63.0809 17.2882 63.0809 17.3518V18.2546C63.0809 18.3182 63.0657 18.3818 63.0428 18.4411C63.0162 18.5047 62.9858 18.5471 62.9478 18.5683L61.5256 19.4838V20.4375L63.0961 19.4287L63.0923 19.4372Z" fill="#FAFAFA"/>
<path d="M65.2801 13.4258C65.4968 13.2859 65.6946 13.1969 65.8657 13.1673C66.0368 13.1376 66.1851 13.163 66.3068 13.2436C66.4285 13.3241 66.5197 13.4682 66.5844 13.6759C66.649 13.8836 66.6795 14.1506 66.6795 14.477C66.6795 14.9051 66.6262 15.2908 66.5273 15.6384C66.4247 15.986 66.2802 16.2954 66.0901 16.5624L66.7061 18.1943C66.7175 18.224 66.7213 18.2494 66.7213 18.2791C66.7213 18.3299 66.7099 18.3808 66.6909 18.4316C66.668 18.4825 66.6452 18.5164 66.6148 18.5376L65.9379 18.9742C65.8733 19.0166 65.8239 19.0208 65.7972 18.9869C65.7706 18.953 65.7478 18.9191 65.7288 18.8767L65.1774 17.4059L64.7211 17.7026V19.5252C64.7211 19.5888 64.7097 19.6524 64.6831 19.7117C64.6565 19.7753 64.626 19.8177 64.588 19.8389L63.9378 20.2585C63.8997 20.2839 63.8693 20.2797 63.8427 20.25C63.8161 20.2204 63.8047 20.1737 63.8047 20.1144V14.6084C63.8047 14.5448 63.8161 14.4812 63.8427 14.4219C63.8693 14.3583 63.8997 14.3159 63.9378 14.2905L65.2839 13.4258H65.2801ZM64.7173 16.3717L65.2801 16.0114C65.4208 15.9224 65.5349 15.8037 65.6261 15.6553C65.7174 15.507 65.763 15.312 65.763 15.0704C65.763 14.8288 65.7174 14.6974 65.6261 14.6635C65.5349 14.6296 65.4208 14.6635 65.2801 14.7483L64.7173 15.1086V16.3717Z" fill="#FAFAFA"/>
<path d="M44.5606 37.8793C44.5606 37.9556 44.553 38.0573 44.553 38.1929C44.553 38.3243 44.553 38.46 44.553 38.5998C44.553 38.7397 44.553 38.8753 44.553 39.0067C44.553 39.1381 44.5568 39.2399 44.5606 39.3119C44.5683 39.4391 44.5835 39.5535 44.6063 39.6595C44.6291 39.7655 44.6671 39.846 44.7166 39.9053C44.766 39.9647 44.8306 39.9986 44.9067 40.0028C44.9827 40.0071 45.0778 39.9731 45.1919 39.9011C45.306 39.829 45.3972 39.7443 45.4695 39.6552C45.5417 39.562 45.6026 39.4687 45.6482 39.3755C45.6938 39.2822 45.7318 39.1848 45.7547 39.0915C45.7813 38.994 45.8003 38.9092 45.8117 38.833C45.8269 38.7312 45.8459 38.6549 45.8649 38.6041C45.884 38.5532 45.922 38.5108 45.979 38.4727L46.6293 38.053C46.6597 38.0318 46.6863 38.0361 46.7053 38.0573C46.7281 38.0785 46.7395 38.1166 46.7395 38.1675C46.7395 38.46 46.6939 38.7609 46.6141 39.0661C46.5342 39.3713 46.4239 39.6637 46.287 39.9435C46.1501 40.2232 45.9828 40.4733 45.7965 40.7064C45.6102 40.9353 45.4048 41.1218 45.1881 41.2617C44.9485 41.4143 44.7356 41.4906 44.5492 41.4906C44.3629 41.4906 44.2032 41.427 44.0701 41.2998C43.937 41.1769 43.8344 40.9947 43.7659 40.7573C43.6937 40.5199 43.6556 40.2487 43.6442 39.9435C43.6366 39.7146 43.6328 39.4645 43.6328 39.1975C43.6328 38.9304 43.6328 38.6719 43.6442 38.426C43.6518 38.1081 43.6899 37.786 43.7621 37.4596C43.8343 37.1333 43.937 36.8196 44.0663 36.5271C44.1956 36.2347 44.3553 35.9634 44.5454 35.7218C44.7356 35.4802 44.9485 35.281 45.1843 35.1241C45.401 34.9843 45.6064 34.908 45.7927 34.8995C45.979 34.891 46.1425 34.9334 46.2832 35.0309C46.4239 35.1284 46.5304 35.281 46.6103 35.4844C46.6901 35.6879 46.7319 35.9337 46.7357 36.2219C46.7357 36.2728 46.7243 36.3237 46.7015 36.3745C46.6787 36.4254 46.6559 36.4593 46.6255 36.4805L45.9752 36.9001C45.9182 36.9383 45.8802 36.9425 45.8611 36.9171C45.8421 36.8917 45.8231 36.8408 45.8079 36.7603C45.7965 36.7009 45.7775 36.6373 45.7509 36.5738C45.7242 36.5102 45.69 36.4593 45.6444 36.4254C45.5988 36.3915 45.5379 36.3745 45.4657 36.3745C45.3934 36.3745 45.2984 36.4127 45.1881 36.4847C45.074 36.5568 44.9827 36.6458 44.9029 36.7475C44.8268 36.8493 44.766 36.9637 44.7128 37.0866C44.6633 37.2096 44.6253 37.3367 44.6025 37.4723C44.5797 37.608 44.5645 37.7394 44.5568 37.875L44.5606 37.8793Z" fill="#FAFAFA"/>
<path d="M47.1442 36.1792C47.1556 35.8529 47.1937 35.5307 47.2659 35.2001C47.3382 34.8737 47.437 34.5643 47.5701 34.2719C47.6994 33.9794 47.8591 33.7124 48.0454 33.4708C48.2318 33.2292 48.4485 33.0257 48.6957 32.8689C48.9391 32.712 49.152 32.6357 49.3421 32.6357C49.5323 32.6357 49.692 32.6993 49.8213 32.8222C49.9505 32.9452 50.0532 33.1232 50.1255 33.3605C50.1977 33.5979 50.2357 33.8692 50.2471 34.1828C50.2548 34.4202 50.2586 34.6745 50.2586 34.9416C50.2586 35.2086 50.2586 35.4629 50.2471 35.7003C50.2357 36.0267 50.1977 36.3488 50.1255 36.6794C50.0532 37.0058 49.9543 37.3194 49.8213 37.6119C49.692 37.9086 49.5323 38.1756 49.3421 38.413C49.152 38.6546 48.9391 38.8538 48.6957 39.0064C48.4485 39.1632 48.2356 39.2438 48.0454 39.2438C47.8591 39.2438 47.6994 39.1844 47.5701 39.0573C47.4408 38.9301 47.3382 38.7521 47.2659 38.5147C47.1937 38.2774 47.1556 38.0061 47.1442 37.6924C47.1366 37.4636 47.1328 37.2177 47.1328 36.9507C47.1328 36.6836 47.1328 36.4251 47.1442 36.175V36.1792ZM49.3269 36.2513C49.3269 36.1453 49.3345 36.0309 49.3383 35.9037C49.3383 35.7766 49.3421 35.6494 49.3421 35.518C49.3421 35.3866 49.3421 35.2637 49.3383 35.1408C49.3383 35.0221 49.3307 34.9119 49.3269 34.8186C49.3193 34.683 49.3041 34.5601 49.2737 34.4584C49.2471 34.3566 49.2052 34.2803 49.1558 34.2252C49.1026 34.1701 49.0417 34.1405 48.9657 34.1405C48.8896 34.1405 48.7984 34.1701 48.6957 34.2379C48.593 34.3058 48.5017 34.3863 48.4257 34.488C48.3496 34.5898 48.285 34.7 48.2356 34.8186C48.1823 34.9416 48.1443 35.0687 48.1177 35.2044C48.0911 35.3442 48.0721 35.4841 48.0644 35.6325C48.0568 35.7342 48.053 35.8444 48.053 35.9673C48.053 36.0902 48.053 36.2174 48.053 36.3488C48.053 36.4802 48.053 36.6073 48.053 36.7303C48.053 36.8532 48.0606 36.9676 48.0644 37.0651C48.0759 37.3406 48.1329 37.5398 48.2356 37.6628C48.3344 37.7857 48.4903 37.7815 48.6957 37.6501C48.901 37.5187 49.0531 37.3279 49.152 37.0736C49.2509 36.8193 49.3079 36.548 49.3269 36.2555V36.2513Z" fill="#FAFAFA"/>
<path d="M53.0712 36.0985C53.0142 36.1324 52.9686 36.1367 52.9344 36.1112C52.9001 36.0816 52.8773 36.0561 52.8659 36.0349L51.7289 33.852V36.7343C51.7289 36.7979 51.7175 36.8615 51.6909 36.9208C51.6643 36.9844 51.6339 37.0268 51.5958 37.048L50.9456 37.4676C50.9076 37.493 50.8771 37.4888 50.8505 37.4591C50.8239 37.4295 50.8125 37.3828 50.8125 37.3235V31.8175C50.8125 31.7539 50.8239 31.6903 50.8505 31.631C50.8771 31.5674 50.9076 31.525 50.9456 31.4996L51.4627 31.169C51.5198 31.1308 51.5654 31.1308 51.5996 31.1563C51.6339 31.1859 51.6567 31.2114 51.6681 31.2326L52.8051 33.4155V30.5332C52.8051 30.4696 52.8165 30.406 52.8431 30.3467C52.8697 30.2831 52.9001 30.2407 52.9382 30.2195L53.5884 29.7999C53.6264 29.7745 53.6569 29.7787 53.6835 29.8084C53.7101 29.838 53.7253 29.8804 53.7253 29.944V35.45C53.7253 35.5136 53.7139 35.5729 53.6835 35.6365C53.6569 35.7001 53.6264 35.7425 53.5884 35.7637L53.0712 36.0943V36.0985Z" fill="#FAFAFA"/>
<path d="M56.8251 27.7149C56.8632 27.6895 56.8936 27.6937 56.9202 27.7234C56.9468 27.7531 56.9582 27.7955 56.9582 27.8591V28.7619C56.9582 28.8255 56.9468 28.889 56.9202 28.9484C56.8936 29.012 56.8632 29.0544 56.8251 29.0755L55.3383 30.0335V31.2033L56.7263 30.3132C56.7605 30.2878 56.7947 30.292 56.8213 30.3217C56.8479 30.3514 56.8593 30.398 56.8593 30.4573V31.3602C56.8593 31.4238 56.8479 31.4831 56.8213 31.5467C56.7947 31.6103 56.7643 31.6526 56.7263 31.6738L55.3383 32.5639V34.4078C55.3383 34.4713 55.3269 34.5349 55.3003 34.5943C55.2737 34.6578 55.2432 34.7002 55.2052 34.7214L54.555 35.141C54.5169 35.1665 54.4865 35.1622 54.4599 35.1326C54.4333 35.1029 54.4219 35.0605 54.4219 34.9969V29.4909C54.4219 29.4274 54.4333 29.368 54.4599 29.3044C54.4865 29.2409 54.5169 29.1985 54.555 29.1773L56.8251 27.7149Z" fill="#FAFAFA"/>
<path d="M57.6175 33.1747C57.5794 33.2002 57.549 33.1959 57.5224 33.1662C57.4958 33.1366 57.4844 33.0942 57.4844 33.0306V27.5246C57.4844 27.461 57.4958 27.4017 57.5224 27.3381C57.549 27.2745 57.5794 27.2322 57.6175 27.211L58.2677 26.7913C58.3057 26.7701 58.3362 26.7701 58.3628 26.7998C58.3894 26.8295 58.4008 26.8719 58.4008 26.9354V32.4414C58.4008 32.505 58.3894 32.5686 58.3628 32.6279C58.3362 32.6915 58.3057 32.7339 58.2677 32.7551L57.6175 33.1747Z" fill="#FAFAFA"/>
<path d="M60.5808 25.2969C60.7975 25.157 60.9953 25.0723 61.1664 25.0383C61.3375 25.0087 61.4858 25.0341 61.6075 25.1146C61.7292 25.1952 61.8204 25.3393 61.8851 25.547C61.9497 25.7547 61.9801 26.0217 61.9801 26.3481C61.9801 26.7762 61.9269 27.1619 61.8242 27.5095C61.7216 27.857 61.5771 28.1665 61.3869 28.4335L62.003 30.0654C62.0144 30.095 62.0182 30.1205 62.0182 30.1501C62.0182 30.201 62.0068 30.2519 61.9877 30.3027C61.9649 30.3536 61.9421 30.3875 61.9117 30.4087L61.2348 30.8453C61.1702 30.8877 61.1207 30.8919 61.0941 30.858C61.0675 30.8241 61.0447 30.7902 61.0257 30.7478L60.4743 29.277L60.018 29.5737V31.3963C60.018 31.4599 60.0066 31.5235 59.98 31.5828C59.9533 31.6464 59.9229 31.6888 59.8849 31.71L59.2347 32.1296C59.1966 32.155 59.1662 32.1508 59.1396 32.1211C59.113 32.0914 59.1016 32.0448 59.1016 31.9855V26.4795C59.1016 26.4159 59.113 26.3523 59.1396 26.293C59.1662 26.2294 59.1966 26.187 59.2347 26.1616L60.5808 25.2969ZM60.018 28.2428L60.5808 27.8825C60.7215 27.7935 60.8356 27.6748 60.9268 27.5264C61.0181 27.3781 61.0637 27.1831 61.0637 26.9415C61.0637 26.6999 61.0181 26.5685 60.9268 26.5346C60.8356 26.5007 60.7215 26.5346 60.5808 26.6194L60.018 26.9796V28.2428Z" fill="#FAFAFA"/>
<path d="M64.0073 27.5578C63.9807 27.5281 63.9578 27.4942 63.9388 27.4603L63.4711 26.354V29.1769C63.4711 29.2405 63.4597 29.2999 63.4331 29.3634C63.4065 29.427 63.376 29.4694 63.338 29.4906L62.6878 29.9102C62.6497 29.9357 62.6193 29.9314 62.5927 29.9018C62.5661 29.8721 62.5547 29.8297 62.5547 29.7661V24.2601C62.5547 24.1965 62.5661 24.1372 62.5927 24.0736C62.6193 24.01 62.6497 23.9677 62.6878 23.9465L63.2658 23.5735C63.3304 23.5311 63.3799 23.5311 63.4141 23.5735C63.4483 23.6158 63.4673 23.6455 63.4787 23.6667L64.2849 25.5105L65.091 22.6325C65.1024 22.5986 65.1214 22.5392 65.1557 22.4545C65.1899 22.3697 65.2393 22.3061 65.304 22.2637L65.882 21.8907C65.92 21.8653 65.9504 21.8695 65.977 21.8992C66.0037 21.9289 66.0151 21.9713 66.0151 22.0348V27.5408C66.0151 27.6044 66.0037 27.668 65.977 27.7273C65.9504 27.7909 65.92 27.8333 65.882 27.8545L65.2317 28.2741C65.1937 28.2995 65.1633 28.2953 65.1367 28.2656C65.11 28.236 65.0948 28.1936 65.0948 28.13V25.3071L64.6271 27.0152C64.6119 27.0703 64.5891 27.1339 64.5587 27.1975C64.532 27.2653 64.4902 27.3119 64.4408 27.3459L64.1214 27.5493C64.0719 27.5832 64.0339 27.5832 64.0035 27.5493L64.0073 27.5578Z" fill="#FAFAFA"/>
<path d="M69.1978 24.3584C69.2359 24.333 69.2663 24.3372 69.2929 24.3669C69.3195 24.3966 69.3309 24.4432 69.3309 24.5025V25.4054C69.3309 25.469 69.3195 25.5325 69.2929 25.5919C69.2663 25.6555 69.2359 25.6978 69.1978 25.719L66.844 27.2322C66.806 27.2577 66.7756 27.2534 66.749 27.2238C66.7223 27.1941 66.7109 27.1475 66.7109 27.0881V21.5821C66.7109 21.5185 66.7223 21.455 66.749 21.3956C66.7756 21.332 66.806 21.2897 66.844 21.2642L69.1598 19.7765C69.194 19.751 69.2283 19.7553 69.2549 19.7849C69.2815 19.8146 69.2967 19.857 69.2967 19.9206V20.8234C69.2967 20.887 69.2815 20.9506 69.2549 21.0099C69.2283 21.0735 69.1978 21.1159 69.1598 21.1371L67.6312 22.1204V23.0402L69.0533 22.1247C69.0914 22.0992 69.1218 22.1035 69.1484 22.1331C69.175 22.1628 69.1902 22.2052 69.1902 22.2688V23.1716C69.1902 23.2352 69.175 23.2988 69.1484 23.3581C69.1218 23.4217 69.0914 23.4641 69.0533 23.4853L67.6312 24.4008V25.3545L69.2016 24.3457L69.1978 24.3584Z" fill="#FAFAFA"/>
<path d="M71.3591 18.3697C71.5872 18.2214 71.7964 18.1451 71.9865 18.1408C72.1766 18.1366 72.3401 18.1959 72.477 18.3146C72.6139 18.4375 72.7204 18.6198 72.8002 18.8614C72.8763 19.103 72.9219 19.3955 72.9333 19.7346C72.9333 19.8532 72.9371 19.9592 72.9371 20.0609V20.6289C72.9371 20.7264 72.9371 20.8324 72.9333 20.9468C72.9219 21.3071 72.8801 21.6547 72.804 21.9938C72.728 22.3329 72.6215 22.6508 72.4884 22.9475C72.3553 23.2442 72.1956 23.5112 72.0093 23.7443C71.823 23.9817 71.6176 24.1724 71.3895 24.3208L70.0472 25.1855C70.0091 25.2109 69.9787 25.2066 69.9521 25.177C69.9255 25.1473 69.9141 25.1007 69.9141 25.0413V19.5354C69.9141 19.4718 69.9255 19.4082 69.9521 19.3488C69.9787 19.2853 70.0091 19.2429 70.0472 19.2175L71.3629 18.3697H71.3591ZM72.0093 20.2941C71.9903 19.654 71.7621 19.4718 71.3324 19.7473L70.8267 20.0737V23.312L71.3591 22.9686C71.7773 22.7016 71.9941 22.2354 72.0093 21.5699C72.0093 21.447 72.0131 21.3368 72.0131 21.2308V20.6204C72.0131 20.5187 72.0131 20.4085 72.0093 20.2898V20.2941Z" fill="#FAFAFA"/>
</g>
<defs>
<clipPath id="clip0_3005_22158">
<rect width="178" height="186" fill="white"/>
</clipPath>
</defs>
</svg>
